<svg width="69" height="75" viewBox="0 0 69 75" fill="none" xmlns="http://www.w3.org/2000/svg">
<path d="M51.1642 49.9538C51.1642 53.3925 48.6251 56.1776 45.4903 56.1776C42.3554 56.1776 39.8163 53.3925 39.8163 49.9538C39.8163 46.5152 42.3554 43.7301 45.4903 43.7301C48.6251 43.7301 51.1642 46.5152 51.1642 49.9538Z" fill="black" fill-opacity="0.69"/>
<path d="M44.6392 62.4014C42.3696 62.4014 40.1 61.779 38.1142 60.223L20.525 49.9539C19.1065 48.7091 17.9717 48.0867 16.8369 46.842C13.4325 43.1077 11.4467 37.8176 11.4467 32.5274C11.4467 27.2372 13.4325 22.2582 16.8369 18.5239C20.2413 14.7897 24.7804 12.6114 29.6033 12.6114C34.4261 12.6114 38.9653 14.7897 42.6533 18.5239C43.7881 19.7687 44.3555 20.7023 45.4903 22.2582L55.4197 42.1742C58.2567 47.4644 57.4056 53.9993 53.4338 58.3559C50.8805 61.1566 48.0436 62.4014 44.6392 62.4014ZM29.6033 15.7233C25.6315 15.7233 21.6597 17.5904 18.8228 20.7023C15.9858 23.8141 14.2836 28.1708 14.2836 32.5274C14.2836 37.1952 15.9858 41.2406 18.8228 44.3525C19.6739 45.2861 20.525 45.9084 21.9434 46.842L39.8164 57.4224C41.5185 58.6671 43.2207 58.9783 44.9229 58.9783C47.4762 58.9783 49.7457 58.0447 51.4479 55.8664C54.5686 52.4434 55.136 47.4644 52.8664 43.4189L42.937 23.5029C42.0859 22.2582 41.5185 21.3246 40.6674 20.3911C37.5468 17.5904 33.8587 15.7233 29.6033 15.7233Z" fill="black" fill-opacity="0.69"/>
<path d="M42.6533 34.3945V31.2826L38.6816 29.7267C38.3979 29.1043 38.3979 28.7931 38.1142 28.1708L39.8164 24.1253L37.8305 21.947L34.1424 23.8141C33.575 23.503 33.2913 23.503 32.7239 23.1918L31.3055 18.8351H28.4685L27.05 23.1918C26.4826 23.503 26.1989 23.503 25.6315 23.8141L21.9435 21.947L19.9576 24.1253L21.6598 28.1708C21.3761 28.7931 21.3761 29.1043 21.0924 29.7267L17.1206 31.2826V34.3945L21.0924 35.9504C21.3761 36.5728 21.3761 36.884 21.6598 37.5064L19.9576 41.5518L21.9435 43.7301L25.6315 41.863C26.1989 42.1742 26.4826 42.4854 27.05 42.4854L28.4685 46.842H31.3055L32.7239 42.4854C33.2913 42.1742 33.575 42.1742 34.1424 41.863L37.8305 43.7301L39.8164 41.5518L38.1142 37.5064C38.3979 36.884 38.6816 36.5728 38.6816 35.9504L42.6533 34.3945ZM29.887 37.5064C27.6174 37.5064 25.6315 35.3281 25.6315 32.8386C25.6315 30.3491 27.6174 28.1708 29.887 28.1708C32.1565 28.1708 34.1424 30.3491 34.1424 32.8386C34.1424 35.3281 32.1565 37.5064 29.887 37.5064Z" fill="black" fill-opacity="0.69"/>
</svg>
