<svg width="67" height="75" viewBox="0 0 67 75" fill="none" xmlns="http://www.w3.org/2000/svg">
<path d="M33.2674 12.4475C25.6131 12.4475 19.406 19.415 19.406 28.0069C19.442 33.2099 21.84 37.7719 25.4551 40.4201L27.7228 46.6781C26.9577 46.6781 26.3367 47.3752 26.3367 48.2341C26.3367 49.0929 26.9577 49.79 27.7228 49.79C26.9577 49.79 26.3367 50.487 26.3367 51.3459C26.3367 52.2048 26.9577 52.9019 27.7228 52.9019C26.9577 52.9019 26.3367 53.5989 26.3367 54.4578C26.3367 55.3167 26.9577 56.0137 27.7228 56.0137C26.9577 56.0137 26.3367 56.7108 26.3367 57.5697C26.3367 58.4285 26.9577 59.1256 27.7228 59.1256H28.8595C29.8076 60.8371 31.3961 62.0165 33.2424 62.2344C35.1387 62.0134 36.73 60.8371 37.6615 59.1536L38.812 59.1256C39.5771 59.1256 40.1981 58.4285 40.1981 57.5697C40.1981 56.7108 39.5771 56.0137 38.812 56.0137C39.5771 56.0137 40.1981 55.3167 40.1981 54.4578C40.1981 53.5989 39.5771 52.9019 38.812 52.9019C39.5771 52.9019 40.1981 52.2048 40.1981 51.3459C40.1981 50.487 39.5771 49.79 38.812 49.79C39.5771 49.79 40.1981 49.0929 40.1981 48.2341C40.1981 47.3752 39.5771 46.6781 38.812 46.6781L41.0298 40.4544C44.6947 37.7719 47.0928 33.2099 47.1288 28.0131C47.1288 19.415 40.9217 12.4475 33.2674 12.4475ZM39.505 37.996L38.812 38.525L38.507 39.4275L36.0397 46.0869C35.9232 46.4323 35.6321 46.675 35.2912 46.6781H31.105C30.8195 46.6159 30.5894 46.3887 30.4979 46.0931L28.0832 39.4275L27.7228 38.525L27.0298 37.9649C24.1327 35.7866 22.2365 32.1519 22.1783 28.0162C22.1783 21.1327 27.1434 15.5594 33.2674 15.5594C39.3914 15.5594 44.3565 21.1327 44.3565 28.0069C44.3094 32.1643 42.4104 35.8146 39.5438 37.968L39.505 37.996Z" fill="black"/>
<path d="M39.6159 21.7831C38.0246 19.8787 35.7708 18.6868 33.2702 18.6713L33.2674 21.7831C34.8892 21.7894 36.3585 22.5238 37.4258 23.7125C38.1965 24.9137 38.6983 26.3825 38.8092 27.9758L41.5842 28.0038C41.4595 25.6512 40.7387 23.5133 39.5937 21.7458L39.6159 21.7831Z" fill="black"/>
</svg>
